0
SECTION
2
HEADER
9
$INSUNITS
70
4
9
$ACADVER
1
AC1014
9
$HANDSEED
5
FFFF
0
ENDSEC
0
SECTION
2
TABLES
0
TABLE
2
VPORT
5
8
100
AcDbSymbolTable
0
ENDTAB
0
TABLE
2
LTYPE
5
5
100
AcDbSymbolTable
0
LTYPE
5
14
100
AcDbSymbolTableRecord
100
AcDbLinetypeTableRecord
2
BYBLOCK
70
0
0
LTYPE
5
15
100
AcDbSymbolTableRecord
100
AcDbLinetypeTableRecord
2
BYLAYER
70
0
0
ENDTAB
0
TABLE
2
LAYER
5
2
100
AcDbSymbolTable
70
2
0
LAYER
5
50
100
AcDbSymbolTableRecord
100
AcDbLayerTableRecord
2
0
70
0
6
CONTINUOUS
0
ENDTAB
0
TABLE
2
STYLE
5
3
100
AcDbSymbolTable
70
1
0
STYLE
5
11
100
AcDbSymbolTableRecord
100
AcDbTextStyleTableRecord
2
STANDARD
70
0
0
ENDTAB
0
TABLE
2
VIEW
5
6
100
AcDbSymbolTable
70
0
0
ENDTAB
0
TABLE
2
UCS
5
7
100
AcDbSymbolTable
70
0
0
ENDTAB
0
TABLE
2
APPID
5
9
100
AcDbSymbolTable
70
2
0
APPID
5
12
100
AcDbSymbolTableRecord
100
AcDbRegAppTableRecord
2
ACAD
70
0
0
ENDTAB
0
TABLE
2
DIMSTYLE
5
A
100
AcDbSymbolTable
70
1
0
ENDTAB
0
TABLE
2
BLOCK_RECORD
5
1
100
AcDbSymbolTable
70
1
0
BLOCK_RECORD
5
1F
100
AcDbSymbolTableRecord
100
AcDbBlockTableRecord
2
*MODEL_SPACE
0
BLOCK_RECORD
5
1B
100
AcDbSymbolTableRecord
100
AcDbBlockTableRecord
2
*PAPER_SPACE
0
ENDTAB
0
ENDSEC
0
SECTION
2
BLOCKS
0
BLOCK
5
20
100
AcDbEntity
100
AcDbBlockBegin
2
*MODEL_SPACE
0
ENDBLK
5
21
100
AcDbEntity
100
AcDbBlockEnd
0
BLOCK
5
1C
100
AcDbEntity
100
AcDbBlockBegin
2
*PAPER_SPACE
0
ENDBLK
5
1D
100
AcDbEntity
100
AcDbBlockEnd
0
ENDSEC
0
SECTION
2
ENTITIES
0
LWPOLYLINE
5
100
100
AcDbEntity
8
0
100
AcDbPolyline
90
106
70
1
43
0.0
10
26.574998919999999
20
38.10967740000001
10
20.587505179989797
20
38.099999999355404
10
20.587505179999997
20
38.091363999999999
10
20.326451599999995
20
38.125732740000004
10
20.083190719999997
20
38.226494539999997
10
19.874296039999997
20
38.386783780000002
10
19.714006799999996
20
38.595678460000002
10
19.613244999999996
20
38.838939340000003
10
19.578876259999998
20
39.099992920000005
10
19.587504639999995
20
42.900071680000011
10
19.596133019999996
20
42.900071680000011
10
19.561764279999995
20
43.161125260000006
10
19.461002479999998
20
43.40438614
10
19.300713239999997
20
43.61328082
10
19.091818559999997
20
43.773570059999997
10
18.848557679999995
20
43.874331859999998
10
18.587504099999997
20
43.908700600000003
10
9.9875060599999959
20
43.900072220000006
10
9.9875060599999959
20
43.908700600000003
10
9.7264524799999954
20
43.874331859999998
10
9.4831915999999961
20
43.773570059999997
10
9.2742969199999958
20
43.61328082
10
9.1140076799999967
20
43.40438614
10
9.0132458799999959
20
43.161125260000006
10
8.9788771399999963
20
42.900071680000011
10
8.9875055199999956
20
39.099992920000005
10
8.9961338999999967
20
39.099992920000005
10
8.961765159999997
20
38.838939340000003
10
8.8610033599999962
20
38.595678460000002
10
8.7007141199999971
20
38.386783780000002
10
8.4918194399999969
20
38.226494539999997
10
8.2485585599999958
20
38.125732740000004
10
7.9875049799999953
20
38.091363999999999
10
7.9875049799999953
20
38.100000000000009
10
2.0000061599999954
20
38.100000000000009
10
2.0000061599999954
20
38.10967740000001
10
1.6079368399999958
20
38.071061780000001
10
1.2309347999999956
20
37.956700820000002
10
0.8834881999999955
20
37.770986180000001
10
0.57894981999999551
20
37.521055259999997
10
0.32901889999999556
20
37.21651688
10
0.14330425999999558
20
36.869070280000003
10
0.028943299999995564
20
36.492068240000002
10
-0.0096723200000044408
20
36.099998920000004
10
5.0799999966604122e-06
20
2.0000010800000014
10
-0.0096723200000044425
20
2.0000010800000014
10
0.028943299999995564
20
1.6079317600000009
10
0.14330425999999558
20
1.2309297200000011
10
0.32901889999999556
20
0.88348312000000095
10
0.57894981999999551
20
0.57894474000000107
10
0.8834881999999955
20
0.32901382000000101
10
1.2309347999999956
20
0.14329918000000105
10
1.6079368399999958
20
0.028938220000001045
10
2.0000061599999954
20
-0.009677399999999961
10
7.9874999000102465
20
6.4455400760644876e-10
10
7.9874998999999969
20
0.0086359999999970419
10
8.2485534799999964
20
-0.025732739999998963
10
8.4918143599999958
20
-0.12649453999999896
10
8.700709039999996
20
-0.28678377999999899
10
8.8609982799999969
20
-0.49567845999999904
10
8.9617600799999959
20
-0.73893933999999895
10
8.9961288199999956
20
-0.99999291999999906
10
8.9875004399999963
20
-4.8000716799999994
10
8.9788720599999969
20
-4.8000716799999994
10
9.0132407999999966
20
-5.061125259999999
10
9.1140025999999956
20
-5.3043861399999992
10
9.2742918399999965
20
-5.5132808199999994
10
9.4831865199999967
20
-5.6735700599999994
10
9.7264473999999961
20
-5.7743318599999993
10
9.9875009799999965
20
-5.8087005999999981
10
18.587499019999996
20
-5.8000722199999988
10
18.587499019999996
20
-5.8087005999999981
10
18.848552599999998
20
-5.7743318599999993
10
19.091813479999995
20
-5.6735700599999994
10
19.300708159999996
20
-5.5132808199999994
10
19.460997399999997
20
-5.3043861399999992
10
19.561759199999997
20
-5.061125259999999
10
19.596127939999995
20
-4.8000716799999994
10
19.587499559999998
20
-0.99999291999999906
10
19.578871179999997
20
-0.99999291999999906
10
19.613239919999998
20
-0.73893933999999883
10
19.714001719999995
20
-0.49567845999999893
10
19.874290959999996
20
-0.28678377999999893
10
20.083185639999996
20
-0.12649453999999896
10
20.326446519999998
20
-0.025732739999998963
10
20.5875001
20
0.0086359999999970401
10
20.5875001
20
1.0408340855860799e-15
10
26.574998919999999
20
1.0408340855860843e-15
10
26.574998919999999
20
-0.009677399999999961
10
26.967068239999996
20
0.028938220000001048
10
27.344070279999997
20
0.14329918000000105
10
27.691516879999995
20
0.32901382000000101
10
27.996055259999999
20
0.57894474000000096
10
28.245986179999996
20
0.88348312000000095
10
28.43170082
20
1.2309297200000011
10
28.546061779999995
20
1.6079317600000012
10
28.584677399999997
20
2.0000010799999979
10
28.574999999999996
20
36.099998919999997
10
28.584677399999997
20
36.099998919999997
10
28.546061779999995
20
36.492068240000002
10
28.43170082
20
36.869070280000003
10
28.245986179999996
20
37.21651688
10
27.996055259999999
20
37.521055259999997
10
27.691516879999995
20
37.770986180000001
10
27.344070279999997
20
37.956700820000002
10
26.967068239999996
20
38.071061780000001
0
CIRCLE
5
101
100
AcDbEntity
8
0
100
AcDbCircle
10
8.4287512399999969
20
7.1500009400000017
30
0
40
2.02499976
210
-1.3684555315672042e-48
220
1.2484470279179148e-95
230
1
0
CIRCLE
5
102
100
AcDbEntity
8
0
100
AcDbCircle
10
11.588749999999994
20
17.780000000000001
30
0
40
0.49999900000000008
210
0
220
-0
230
1
0
CIRCLE
5
103
100
AcDbEntity
8
0
100
AcDbCircle
10
16.668749999999996
20
13.970000000000002
30
0
40
0.84999829999999987
210
0
220
-0
230
1
0
CIRCLE
5
104
100
AcDbEntity
8
0
100
AcDbCircle
10
11.588749999999994
20
20.32
30
0
40
0.49999900000000008
210
0
220
-0
230
1
0
CIRCLE
5
105
100
AcDbEntity
8
0
100
AcDbCircle
10
16.668749999999996
20
19.050000000000004
30
0
40
1.99999854
210
0
220
-0
230
1
0
LWPOLYLINE
5
106
100
AcDbEntity
8
0
100
AcDbPolyline
90
4
70
1
43
0.0
10
10.267505499999995
20
38.870072120000003
10
10.267505499999993
20
37.770074319999999
42
-0.99999999999999989
10
9.667506699999997
20
37.770074319999999
10
9.6675066999999952
20
38.870072120000003
42
-0.99999999999999989
0
LWPOLYLINE
5
107
100
AcDbEntity
8
0
100
AcDbPolyline
90
4
70
1
43
0.0
10
10.267668059999997
20
42.900071680000011
10
10.267668059999995
20
42.100073279999997
42
-0.99999999999999989
10
9.6676692599999967
20
42.100073279999997
10
9.6676692599999932
20
42.900071680000011
42
-0.99999999999999989
0
CIRCLE
5
108
100
AcDbEntity
8
0
100
AcDbCircle
10
16.668749999999996
20
24.130000000000003
30
0
40
0.84999829999999987
210
0
220
-0
230
1
0
CIRCLE
5
109
100
AcDbEntity
8
0
100
AcDbCircle
10
8.4287512399999969
20
30.94999906
30
0
40
2.02499976
210
-1.3684555315672042e-48
220
1.2484470279179148e-95
230
1
0
CIRCLE
5
110
100
AcDbEntity
8
0
100
AcDbCircle
10
11.397505779999994
20
38.82007222
30
0
40
0.32500062000000002
210
0
220
-0
230
1
0
CIRCLE
5
111
100
AcDbEntity
8
0
100
AcDbCircle
10
21.748749999999998
20
16.510000000000002
30
0
40
0.74999850000000001
210
0
220
-0
230
1
0
CIRCLE
5
112
100
AcDbEntity
8
0
100
AcDbCircle
10
19.208749999999995
20
22.859999999999999
30
0
40
0.74999850000000001
210
0
220
-0
230
1
0
CIRCLE
5
113
100
AcDbEntity
8
0
100
AcDbCircle
10
23.668751239999995
20
7.1500009400000017
30
0
40
1.5749981200000001
210
1.3684555315672042e-48
220
-2.7465834614194183e-95
230
1
0
CIRCLE
5
114
100
AcDbEntity
8
0
100
AcDbCircle
10
24.002999999999997
20
25.399999999999999
30
0
40
0.49530000000000007
210
0
220
-0
230
1
0
CIRCLE
5
115
100
AcDbEntity
8
0
100
AcDbCircle
10
25.018999999999995
20
20.32
30
0
40
0.49530000000000007
210
0
220
-0
230
1
0
CIRCLE
5
116
100
AcDbEntity
8
0
100
AcDbCircle
10
17.177504379999995
20
38.82007222
30
0
40
0.32500062000000002
210
0
220
-0
230
1
0
LWPOLYLINE
5
117
100
AcDbEntity
8
0
100
AcDbPolyline
90
4
70
1
43
0.0
10
18.907503459999997
20
38.870072120000003
10
18.907503460000001
20
37.770074319999999
42
-0.99999999999999989
10
18.307504659999996
20
37.770074319999999
10
18.307504659999999
20
38.870072120000003
42
-0.99999999999999989
0
CIRCLE
5
118
100
AcDbEntity
8
0
100
AcDbCircle
10
26.035
20
25.399999999999999
30
0
40
0.49530000000000007
210
0
220
-0
230
1
0
LWPOLYLINE
5
119
100
AcDbEntity
8
0
100
AcDbPolyline
90
4
70
1
43
0.0
10
18.907666019999997
20
42.900071680000011
10
18.907666019999997
20
42.100073279999997
42
-0.99999999999999989
10
18.307667219999995
20
42.100073279999997
10
18.307667219999995
20
42.900071680000011
42
-0.99999999999999989
0
CIRCLE
5
120
100
AcDbEntity
8
0
100
AcDbCircle
10
23.668751239999995
20
30.94999906
30
0
40
1.5749981200000001
210
1.3684555315672042e-48
220
-2.7465834614194183e-95
230
1
0
ENDSEC
0
SECTION
2
OBJECTS
0
DICTIONARY
5
C
100
AcDbDictionary
3
ACAD_GROUP
350
D
3
ACAD_MLINESTYLE
350
17
0
DICTIONARY
5
D
100
AcDbDictionary
0
DICTIONARY
5
1A
330
C
100
AcDbDictionary
0
DICTIONARY
5
17
100
AcDbDictionary
0
ENDSEC
0
EOF
