0
SECTION
2
HEADER
9
$INSUNITS
70
4
9
$ACADVER
1
AC1014
9
$HANDSEED
5
FFFF
0
ENDSEC
0
SECTION
2
TABLES
0
TABLE
2
VPORT
5
8
100
AcDbSymbolTable
0
ENDTAB
0
TABLE
2
LTYPE
5
5
100
AcDbSymbolTable
0
LTYPE
5
14
100
AcDbSymbolTableRecord
100
AcDbLinetypeTableRecord
2
BYBLOCK
70
0
0
LTYPE
5
15
100
AcDbSymbolTableRecord
100
AcDbLinetypeTableRecord
2
BYLAYER
70
0
0
ENDTAB
0
TABLE
2
LAYER
5
2
100
AcDbSymbolTable
70
2
0
LAYER
5
50
100
AcDbSymbolTableRecord
100
AcDbLayerTableRecord
2
0
70
0
6
CONTINUOUS
0
ENDTAB
0
TABLE
2
STYLE
5
3
100
AcDbSymbolTable
70
1
0
STYLE
5
11
100
AcDbSymbolTableRecord
100
AcDbTextStyleTableRecord
2
STANDARD
70
0
0
ENDTAB
0
TABLE
2
VIEW
5
6
100
AcDbSymbolTable
70
0
0
ENDTAB
0
TABLE
2
UCS
5
7
100
AcDbSymbolTable
70
0
0
ENDTAB
0
TABLE
2
APPID
5
9
100
AcDbSymbolTable
70
2
0
APPID
5
12
100
AcDbSymbolTableRecord
100
AcDbRegAppTableRecord
2
ACAD
70
0
0
ENDTAB
0
TABLE
2
DIMSTYLE
5
A
100
AcDbSymbolTable
70
1
0
ENDTAB
0
TABLE
2
BLOCK_RECORD
5
1
100
AcDbSymbolTable
70
1
0
BLOCK_RECORD
5
1F
100
AcDbSymbolTableRecord
100
AcDbBlockTableRecord
2
*MODEL_SPACE
0
BLOCK_RECORD
5
1B
100
AcDbSymbolTableRecord
100
AcDbBlockTableRecord
2
*PAPER_SPACE
0
ENDTAB
0
ENDSEC
0
SECTION
2
BLOCKS
0
BLOCK
5
20
100
AcDbEntity
100
AcDbBlockBegin
2
*MODEL_SPACE
0
ENDBLK
5
21
100
AcDbEntity
100
AcDbBlockEnd
0
BLOCK
5
1C
100
AcDbEntity
100
AcDbBlockBegin
2
*PAPER_SPACE
0
ENDBLK
5
1D
100
AcDbEntity
100
AcDbBlockEnd
0
ENDSEC
0
SECTION
2
ENTITIES
0
ELLIPSE
5
100
100
AcDbEntity
8
0
100
AcDbEllipse
10
-8.4739216942323008
20
-11.979805638494302
30
0
11
3.7172738845403508e-13
21
-1.0000000000000004
31
0.0
40
0.99999951415672816
41
4.7114032387229754
42
6.1028819138296724
0
LINE
5
101
100
AcDbEntity
8
0
100
AcDbLine
10
-9.4739207225459925
20
-11.978819896992599
30
0
11
-9.4363007666109606
21
26.185299064148403
31
0
0
ELLIPSE
5
102
100
AcDbEntity
8
0
100
AcDbEllipse
10
-8.43630173829726
20
26.184313322646702
30
0
11
7.302353166593889e-12
21
1.0000000000000002
31
0.0
40
0.99999951415672805
41
0.17833191003439061
42
1.5698105851408615
0
ELLIPSE
5
103
100
AcDbEntity
8
0
100
AcDbEllipse
10
-8.7910779365536627
20
28.152595245250303
30
0
11
5.251986345822246e-11
21
-1.0000000000000004
31
0.0
40
0.99999951415672805
41
0.17833190997456946
42
1.2207447346822016
0
LINE
5
104
100
AcDbEntity
8
0
100
AcDbLine
10
-7.851723372140091
20
27.8096489740777
30
0
11
-6.3283839046413899
21
31.982189668266201
31
0
0
ELLIPSE
5
105
100
AcDbEntity
8
0
100
AcDbEllipse
10
-5.38902934022782
20
31.639243397093502
30
0
11
-2.1976412118047961e-13
21
1.0000000000000004
31
0.0
40
0.99999951415672783
41
6.2821995655180523
42
7.5039300419139998
0
LINE
5
106
100
AcDbEntity
8
0
100
AcDbLine
10
-5.3880435992050604
20
32.639242911250228
30
0
11
-2.7884612016055699
21
32.636680392503997
31
0
0
ELLIPSE
5
107
100
AcDbEntity
8
0
100
AcDbEllipse
10
-2.7894469426283104
20
31.636680878347299
30
0
11
-1.500711360735707e-10
21
1.0000000000000004
31
0.0
40
0.99999951415672783
41
5.0604690889721224
42
6.2821995653682201
0
LINE
5
108
100
AcDbEntity
8
0
100
AcDbLine
10
-1.8494180916429526
20
31.977774561489611
30
0
11
-0.33430766962655095
21
27.802238738234003
31
0
0
ELLIPSE
5
109
100
AcDbEntity
8
0
100
AcDbEllipse
10
0.60572118135878805
20
28.1433324213764
30
0
11
2.2496829160841003e-13
21
-1.0000000000000004
31
0.0
40
0.99999951415672783
41
5.0604690891220567
42
6.2821995655180523
0
LINE
5
110
100
AcDbEntity
8
0
100
AcDbLine
10
0.60473544033603366
20
27.143332907219673
30
0
11
10.0844388343143
21
27.1339883610807
31
0
0
ELLIPSE
5
111
100
AcDbEntity
8
0
100
AcDbEllipse
10
10.085424575337001
20
28.133987875237398
30
0
11
-3.9107120319847866e-11
21
-1.0000000000000002
31
0.0
40
0.99999951415672783
41
6.2821995655574367
42
7.5039300419534349
0
LINE
5
112
100
AcDbEntity
8
0
100
AcDbLine
10
11.024779139750578
20
27.791041604064812
30
0
11
12.548118607249402
21
31.963582298253304
31
0
0
ELLIPSE
5
113
100
AcDbEntity
8
0
100
AcDbEllipse
10
13.4874731716629
20
31.6206360270807
30
0
11
1.699652246202332e-13
21
1.0000000000000004
31
0.0
40
0.99999951415672828
41
6.2821995655183995
42
7.5039300419144581
0
LINE
5
114
100
AcDbEntity
8
0
100
AcDbLine
10
13.488458912685704
20
32.620635541237426
30
0
11
16.088041310285199
21
32.618073022491103
31
0
0
ELLIPSE
5
115
100
AcDbEntity
8
0
100
AcDbEllipse
10
16.0870555692625
20
31.618073508334401
30
0
11
4.4643039265324092e-11
21
1
31
0.0
40
0.99999951415672805
41
5.0604690891668476
42
6.2821995655629754
0
LINE
5
116
100
AcDbEntity
8
0
100
AcDbLine
10
17.027084420247856
20
31.95916719147672
30
0
11
18.542194842264198
21
27.783631368221101
31
0
0
ELLIPSE
5
117
100
AcDbEntity
8
0
100
AcDbEllipse
10
19.482223693249502
20
28.124725051363502
30
0
11
-6.8876224168512579e-11
21
-1.0000000000000004
31
0.0
40
0.99999951415672805
41
5.0604690891911712
42
5.9739845951966064
0
ELLIPSE
5
118
100
AcDbEntity
8
0
100
AcDbEllipse
10
18.8736292882623
20
26.219570860669805
30
0
11
-3.717276595045782e-13
21
1.0000000000000004
31
0.0
40
0.99999951415672816
41
4.7114032387229843
42
5.973984595127332
0
LINE
5
119
100
AcDbEntity
8
0
100
AcDbLine
10
19.873628316575992
20
26.218585119168104
30
0
11
19.835885777699701
21
-12.069889914341903
31
0
0
ELLIPSE
5
120
100
AcDbEntity
8
0
100
AcDbEllipse
10
18.835886749385999
20
-12.068904172840202
30
0
11
-7.3595296523620846e-11
21
-1.0000000000000004
31
0.0
40
0.99999951415672783
41
0.30722922880292652
42
1.5698105852071533
0
ELLIPSE
5
121
100
AcDbEntity
8
0
100
AcDbEllipse
10
19.440723996191402
20
-13.9752544946348
30
0
11
5.0725396105733012e-12
21
1.0000000000000004
31
0.0
40
0.99999951415672805
41
0.30722922873420977
42
1.2207447347397158
0
LINE
5
122
100
AcDbEntity
8
0
100
AcDbLine
10
18.50136943177786
20
-13.632308223462122
30
0
11
16.978029964279202
21
-17.804848917650599
31
0
0
ELLIPSE
5
123
100
AcDbEntity
8
0
100
AcDbEllipse
10
16.0386753998656
20
-17.461902646477899
30
0
11
6.3422438958612992e-13
21
-1.0000000000000002
31
0.0
40
0.99999951415672805
41
6.2821995655176961
42
7.5039300419135975
0
LINE
5
124
100
AcDbEntity
8
0
100
AcDbLine
10
16.037689658842901
20
-18.461902160634629
30
0
11
13.438107261243299
21
-18.459339641888398
31
0
0
ELLIPSE
5
125
100
AcDbEntity
8
0
100
AcDbEllipse
10
13.4390930022661
20
-17.4593401277316
30
0
11
-4.4548045807779602e-11
21
-1
31
0.0
40
0.99999951415672783
41
5.0604690891668431
42
6.2821995655627783
0
LINE
5
126
100
AcDbEntity
8
0
100
AcDbLine
10
12.499064151280779
20
-17.800433810874008
30
0
11
10.9839537292644
21
-13.6248979876184
31
0
0
ELLIPSE
5
127
100
AcDbEntity
8
0
100
AcDbEllipse
10
10.043924878279
20
-13.965991670760802
30
0
11
1.6968807543989162e-13
21
1
31
0.0
40
0.99999951415672805
41
5.0604690891224342
42
6.2821995655184013
0
LINE
5
128
100
AcDbEntity
8
0
100
AcDbLine
10
10.044910619301801
20
-12.965992156604074
30
0
11
0.56520722532351853
21
-12.956647610465099
31
0
0
ELLIPSE
5
129
100
AcDbEntity
8
0
100
AcDbEllipse
10
0.56422148430076602
20
-13.956647124621902
30
0
11
5.0819071173435759e-12
21
1.0000000000000002
31
0.0
40
0.99999951415672783
41
6.2821995655233609
42
7.5039300419193014
0
LINE
5
130
100
AcDbEntity
8
0
100
AcDbLine
10
-0.37513308011277413
20
-13.613700853449213
30
0
11
-1.8984725476115902
21
-17.786241547637701
31
0
0
ELLIPSE
5
131
100
AcDbEntity
8
0
100
AcDbEllipse
10
-2.8378271120251504
20
-17.443295276465001
30
0
11
2.0970272501981413e-13
21
-1.0000000000000004
31
0.0
40
0.99999951415672783
41
6.2821995655180523
42
7.5039300419140069
0
LINE
5
132
100
AcDbEntity
8
0
100
AcDbLine
10
-2.8388128530479202
20
-18.443294790621731
30
0
11
-5.4383952506474298
21
-18.4407322718755
31
0
0
ELLIPSE
5
133
100
AcDbEntity
8
0
100
AcDbEllipse
10
-5.4374095096246702
20
-17.440732757718699
30
0
11
9.2918658878282656e-11
21
-1.0000000000000004
31
0.0
40
0.99999951415672783
41
5.0604690890293647
42
6.2821995654253531
0
LINE
5
134
100
AcDbEntity
8
0
100
AcDbLine
10
-6.3774383606099985
20
-17.781826440861096
30
0
11
-7.892548782626311
21
-13.606290617605602
31
0
0
ELLIPSE
5
135
100
AcDbEntity
8
0
100
AcDbEllipse
10
-8.8325776336116508
20
-13.947384300747903
30
0
11
7.7673631415642319e-11
21
1.0000000000000004
31
0.0
40
0.99999951415672783
41
5.0604690891998647
42
6.1028819139077264
0
LINE
5
136
100
AcDbEntity
8
0
100
AcDbLine
10
14.0884128440851
20
14.0800351336347
30
0
11
1.0884254760071088
21
14.092849773156502
31
0
0
ELLIPSE
5
137
100
AcDbEntity
8
0
100
AcDbEllipse
10
1.0879326054957299
20
13.592850016078099
30
0
11
-2.3623674360023078e-13
21
0.50000000000000011
31
0.0
40
0.99999951415672816
41
6.2821995655178018
42
7.8529958923127703
0
LINE
5
138
100
AcDbEntity
8
0
100
AcDbLine
10
0.58793309133888383
20
13.5933428868289
30
0
11
0.57511845804306505
21
0.59334920279147996
31
0
0
ELLIPSE
5
139
100
AcDbEntity
8
0
100
AcDbEllipse
10
1.07511797219991
20
0.59285633204064503
30
0
11
2.2599516659102536e-14
21
-0.50000000000000033
31
0.0
40
0.99999951415672783
41
4.711403238723336
42
6.2821995655182263
0
LINE
5
140
100
AcDbEntity
8
0
100
AcDbLine
10
1.07462510168853
20
0.092856574962280808
30
0
11
14.0746124697665
21
0.080041935440544595
31
0
0
ELLIPSE
5
141
100
AcDbEntity
8
0
100
AcDbEllipse
10
14.075105340277902
20
0.58004169251891313
30
0
11
-6.063692028959039e-14
21
-0.49999999999999817
31
0.0
40
0.99999951415672794
41
6.2821995655183462
42
7.852995892313297
0
LINE
5
142
100
AcDbEntity
8
0
100
AcDbLine
10
14.575104854434747
20
0.57954882176807876
30
0
11
14.5879194877306
21
13.579542505805502
31
0
0
ELLIPSE
5
143
100
AcDbEntity
8
0
100
AcDbEllipse
10
14.087919973573699
20
13.580035376556401
30
0
11
1.7413181356909502e-13
21
0.49999999999999822
31
0.0
40
0.99999951415672794
41
4.7114032387235989
42
6.2821995655185772
0
LINE
5
144
100
AcDbEntity
8
0
100
AcDbLine
10
14.073194974175802
20
-1.35795736591683
30
0
11
-0.92679045052957321
21
-1.34317124339175
31
0
0
ELLIPSE
5
145
100
AcDbEntity
8
0
100
AcDbEllipse
10
-0.92728332104095013
20
-1.8431710004701101
30
0
11
5.6640144505994139e-14
21
0.49999999999999817
31
0.0
40
0.99999951415672794
41
6.2821995655183915
42
7.852995892313297
0
LINE
5
146
100
AcDbEntity
8
0
100
AcDbLine
10
-1.4272828351977942
20
-1.8426781297192798
30
0
11
-1.4331972813343303
21
-7.842675214659649
31
0
0
ELLIPSE
5
147
100
AcDbEntity
8
0
100
AcDbEllipse
10
-0.93319776717748504
20
-7.8431680854104897
30
0
11
2.4708967510944649e-14
21
-0.50000000000000033
31
0.0
40
0.99999951415672783
41
4.7114032387233182
42
6.2821995655182263
0
LINE
5
148
100
AcDbEntity
8
0
100
AcDbLine
10
-0.93369063768886307
20
-8.3431678424888549
30
0
11
14.066294787016499
21
-8.3579539650139303
31
0
0
ELLIPSE
5
149
100
AcDbEntity
8
0
100
AcDbEllipse
10
14.066787657527902
20
-7.8579542079355598
30
0
11
1.1860378944152791e-13
21
-0.49999999999999817
31
0.0
40
0.99999951415672794
41
6.2821995655179945
42
7.8529958923129461
0
LINE
5
150
100
AcDbEntity
8
0
100
AcDbLine
10
14.566787171684744
20
-7.8584470786863907
30
0
11
14.572701617821302
21
-1.8584499937460197
31
0
0
ELLIPSE
5
151
100
AcDbEntity
8
0
100
AcDbEllipse
10
14.072702103664401
20
-1.8579571229951899
30
0
11
-8.9202394928065976e-14
21
0.49999999999999822
31
0.0
40
0.99999951415672794
41
4.7114032387232125
42
6.2821995655180514
0
LINE
5
152
100
AcDbEntity
8
0
100
AcDbLine
10
14.590322724344
20
16.017541321319602
30
0
11
14.596237170480602
21
22.017538406260005
31
0
0
ELLIPSE
5
153
100
AcDbEntity
8
0
100
AcDbEllipse
10
14.0962376563237
20
22.018031277010902
30
0
11
-8.9202394928065976e-14
21
0.49999999999999822
31
0.0
40
0.99999951415672794
41
4.7114032387230802
42
6.2821995655180514
0
LINE
5
154
100
AcDbEntity
8
0
100
AcDbLine
10
14.096730526835103
20
22.518031034089265
30
0
11
-0.90325489787025814
21
22.5328171566143
31
0
0
ELLIPSE
5
155
100
AcDbEntity
8
0
100
AcDbEllipse
10
-0.90374776838163595
20
22.032817399535901
30
0
11
4.2096182225823114e-14
21
0.50000000000000022
31
0.0
40
0.99999951415672772
41
6.2821995655183605
42
7.8529958923131433
0
LINE
5
156
100
AcDbEntity
8
0
100
AcDbLine
10
-1.403747282538482
20
22.033310270286798
30
0
11
-1.4096617286750199
21
16.033313185346401
31
0
0
ELLIPSE
5
157
100
AcDbEntity
8
0
100
AcDbEllipse
10
-0.90966221451816998
20
16.0328203145956
30
0
11
-6.3609125020187827e-14
21
-0.50000000000000022
31
0.0
40
0.99999951415672805
41
4.7114032387235705
42
6.2821995655184004
0
LINE
5
158
100
AcDbEntity
8
0
100
AcDbLine
10
-0.91015508502954923
20
15.532820557517237
30
0
11
14.0898303396758
21
15.518034434992101
31
0
0
ELLIPSE
5
159
100
AcDbEntity
8
0
100
AcDbEllipse
10
14.090323210187201
20
16.018034192070498
30
0
11
2.2725487399018191e-13
21
-0.49999999999999989
31
0.0
40
0.99999951415672794
41
6.2821995655177778
42
7.8529958923125962
0
ELLIPSE
5
160
100
AcDbEntity
8
0
100
AcDbEllipse
10
14.786278629440002
20
30.619355253550804
30
0
11
-3.2743556130365725e-13
21
-1.1000000000000005
31
0.0
40
0.99999951415672783
41
0
42
6.2831853071795862
0
ELLIPSE
5
161
100
AcDbEntity
8
0
100
AcDbEllipse
10
-4.0902238824508412
20
30.637962623563698
30
0
11
4.6656553403731659e-13
21
1.1000000000000005
31
0.0
40
0.99999951415672783
41
0
42
6.2831853071795862
0
ELLIPSE
5
162
100
AcDbEntity
8
0
100
AcDbEllipse
10
-4.1366325698021802
20
-16.442014502935098
30
0
11
3.2743556130365725e-13
21
1.1000000000000005
31
0.0
40
0.99999951415672783
41
0
42
6.2831853071795862
0
ELLIPSE
5
163
100
AcDbEntity
8
0
100
AcDbEllipse
10
14.739869942088699
20
-16.460621872948099
30
0
11
-4.6656553403731659e-13
21
-1.1000000000000005
31
0.0
40
0.99999951415672783
41
0
42
6.2831853071795862
0
ENDSEC
0
SECTION
2
OBJECTS
0
DICTIONARY
5
C
100
AcDbDictionary
3
ACAD_GROUP
350
D
3
ACAD_MLINESTYLE
350
17
0
DICTIONARY
5
D
100
AcDbDictionary
0
DICTIONARY
5
1A
330
C
100
AcDbDictionary
0
DICTIONARY
5
17
100
AcDbDictionary
0
ENDSEC
0
EOF
