0
SECTION
2
HEADER
9
$INSUNITS
70
4
9
$ACADVER
1
AC1014
9
$HANDSEED
5
FFFF
0
ENDSEC
0
SECTION
2
TABLES
0
TABLE
2
VPORT
5
8
100
AcDbSymbolTable
0
ENDTAB
0
TABLE
2
LTYPE
5
5
100
AcDbSymbolTable
0
LTYPE
5
14
100
AcDbSymbolTableRecord
100
AcDbLinetypeTableRecord
2
BYBLOCK
70
0
0
LTYPE
5
15
100
AcDbSymbolTableRecord
100
AcDbLinetypeTableRecord
2
BYLAYER
70
0
0
ENDTAB
0
TABLE
2
LAYER
5
2
100
AcDbSymbolTable
70
2
0
LAYER
5
50
100
AcDbSymbolTableRecord
100
AcDbLayerTableRecord
2
0
70
0
6
CONTINUOUS
0
ENDTAB
0
TABLE
2
STYLE
5
3
100
AcDbSymbolTable
70
1
0
STYLE
5
11
100
AcDbSymbolTableRecord
100
AcDbTextStyleTableRecord
2
STANDARD
70
0
0
ENDTAB
0
TABLE
2
VIEW
5
6
100
AcDbSymbolTable
70
0
0
ENDTAB
0
TABLE
2
UCS
5
7
100
AcDbSymbolTable
70
0
0
ENDTAB
0
TABLE
2
APPID
5
9
100
AcDbSymbolTable
70
2
0
APPID
5
12
100
AcDbSymbolTableRecord
100
AcDbRegAppTableRecord
2
ACAD
70
0
0
ENDTAB
0
TABLE
2
DIMSTYLE
5
A
100
AcDbSymbolTable
70
1
0
ENDTAB
0
TABLE
2
BLOCK_RECORD
5
1
100
AcDbSymbolTable
70
1
0
BLOCK_RECORD
5
1F
100
AcDbSymbolTableRecord
100
AcDbBlockTableRecord
2
*MODEL_SPACE
0
BLOCK_RECORD
5
1B
100
AcDbSymbolTableRecord
100
AcDbBlockTableRecord
2
*PAPER_SPACE
0
ENDTAB
0
ENDSEC
0
SECTION
2
BLOCKS
0
BLOCK
5
20
100
AcDbEntity
100
AcDbBlockBegin
2
*MODEL_SPACE
0
ENDBLK
5
21
100
AcDbEntity
100
AcDbBlockEnd
0
BLOCK
5
1C
100
AcDbEntity
100
AcDbBlockBegin
2
*PAPER_SPACE
0
ENDBLK
5
1D
100
AcDbEntity
100
AcDbBlockEnd
0
ENDSEC
0
SECTION
2
ENTITIES
0
LWPOLYLINE
5
100
100
AcDbEntity
8
0
100
AcDbPolyline
90
36
70
1
43
0.0
10
-8.6532564834779429
20
-12.96359496962112
42
-0.36261617815902891
10
-9.4739279408196584
20
-11.978819896992601
10
-9.4363079666072061
20
26.185299064148403
42
-0.36261617815896602
10
-8.6136966377615352
20
27.168454283948513
42
0.26666753901141349
10
-7.8517298022797011
20
27.8096489740777
10
-6.3283895946763815
20
31.982189668266191
42
-0.31529878887896001
10
-5.3880488323818483
20
32.639242911250228
10
-2.7884651717921267
20
32.636680392504033
42
-0.3152987888790022
10
-1.84942160560151
20
31.977774561489611
10
-0.33431044747854627
20
27.802238738234003
42
0.31529878887897334
10
0.6047331187120375
20
27.143332907219673
10
10.084441118342657
20
27.1339883610807
42
0.31529878887897494
10
11.024781880637164
20
27.791041604064812
10
12.548122088240516
20
31.963582298253325
42
-0.31529878887898999
10
13.488462850535115
20
32.620635541237426
10
16.088046511124844
20
32.618073022491131
42
-0.31529878887901069
10
17.027090077315499
20
31.95916719147672
10
18.542201235438405
20
27.783631368221101
42
0.23243401114433282
10
19.177933192796221
20
27.172147956016659
42
-0.32656345386036167
10
19.873635356618511
20
26.218585119168104
10
19.83589279940524
20
-12.069889914341903
42
-0.32656345386032937
10
19.138312055579426
20
-13.022079333737473
42
0.23243401114434464
10
18.501375805117309
20
-13.632308223462122
10
16.978035597514001
20
-17.804848917650581
42
-0.31529878887894686
10
16.037694835219526
20
-18.461902160634629
10
13.438111174629688
20
-18.459339641888327
42
-0.31529878887895663
10
12.499067608439169
20
-17.800433810874011
10
10.983956450316228
20
-13.6248979876184
42
0.31529878887896484
10
10.04491288412563
20
-12.965992156604072
10
0.5652048844949964
20
-12.956647610465099
42
0.31529878887895713
10
-0.37513587779953034
20
-13.613700853449213
10
-1.8984760854029576
20
-17.786241547637694
42
-0.31529878887896251
10
-2.8388168476975002
20
-18.443294790621731
10
-5.4384005082872413
20
-18.440732271875429
42
-0.31529878887897211
10
-6.3774440744778076
20
-17.781826440861096
10
-7.8925552326006843
20
-13.606290617605602
42
0.26666753901147566
0
LWPOLYLINE
5
101
100
AcDbEntity
8
0
100
AcDbPolyline
90
8
70
1
43
0.0
10
1.0884233893807771
20
14.092849773156502
10
14.088417073418235
20
14.080035133634819
42
-0.41421356237311968
10
14.587923959745797
20
13.579542505805502
10
14.57510932022404
20
0.5795488217680792
42
-0.41421356237310658
10
14.074616692394816
20
0.080041935440544595
10
1.0746230083573753
20
0.092856574962282001
42
-0.41421356237309315
10
0.57511612202985019
20
0.59334920279147996
10
0.5879307615515359
20
13.5933428868289
42
-0.41421356237311469
0
LWPOLYLINE
5
102
100
AcDbEntity
8
0
100
AcDbPolyline
90
8
70
1
43
0.0
10
-0.92679351623548012
20
-1.34317124339175
10
14.073199196115436
20
-1.357957365916767
42
-0.4142135623730745
10
14.572706082442997
20
-1.8584499937460197
10
14.566791633432954
20
-7.8584470786863907
42
-0.41421356237311585
10
14.066299005603721
20
-8.3579539650139303
10
-0.93369370674718188
20
-8.3431678424888549
42
-0.4142135623730977
10
-1.4332005930747094
20
-7.842675214659649
10
-1.4272861440646765
20
-1.84267812971928
42
-0.41421356237309792
0
LWPOLYLINE
5
103
100
AcDbEntity
8
0
100
AcDbPolyline
90
8
70
1
43
0.0
10
14.596241646536892
20
22.017538406260005
10
14.590327197526872
20
16.017541321319602
42
-0.41421356237307155
10
14.089834569697617
20
15.518034434992101
10
-0.91015814265327255
20
15.532820557517233
42
-0.41421356237307649
10
-1.4096650289808039
20
16.033313185346401
10
-1.403750579970807
20
22.033310270286801
42
-0.41421356237305645
10
-0.90325795214157178
20
22.5328171566143
10
14.096734760209328
20
22.518031034089322
42
-0.41421356237311185
0
CIRCLE
5
104
100
AcDbEntity
8
0
100
AcDbCircle
10
14.786283197826702
20
30.619355253550804
30
0
40
1.1000000000000005
210
-0
220
0
230
1
0
CIRCLE
5
105
100
AcDbEntity
8
0
100
AcDbCircle
10
-4.0902284850903454
20
30.637962623563698
30
0
40
1.1000000000000005
210
0
220
-0
230
1
0
CIRCLE
5
106
100
AcDbEntity
8
0
100
AcDbCircle
10
-4.1366371949890448
20
-16.442014502935098
30
0
40
1.1000000000000005
210
0
220
-0
230
1
0
CIRCLE
5
107
100
AcDbEntity
8
0
100
AcDbCircle
10
14.73987448792804
20
-16.460621872948099
30
0
40
1.1000000000000005
210
-0
220
0
230
1
0
ENDSEC
0
SECTION
2
OBJECTS
0
DICTIONARY
5
C
100
AcDbDictionary
3
ACAD_GROUP
350
D
3
ACAD_MLINESTYLE
350
17
0
DICTIONARY
5
D
100
AcDbDictionary
0
DICTIONARY
5
1A
330
C
100
AcDbDictionary
0
DICTIONARY
5
17
100
AcDbDictionary
0
ENDSEC
0
EOF
